<?xml version="1.0" standalone="no"?>
<!DOCTYPE svg PUBLIC "-//W3C//DTD SVG 20010904//EN"
 "http://www.w3.org/TR/2001/REC-SVG-20010904/DTD/svg10.dtd">
<svg version="1.0" xmlns="http://www.w3.org/2000/svg"
 width="260.000000pt" height="260.000000pt" viewBox="0 0 260.000000 260.000000"
 preserveAspectRatio="xMidYMid meet">
<metadata>
Created by potrace 1.14, written by Peter Selinger 2001-2017
</metadata>
<g transform="translate(0.000000,260.000000) scale(0.100000,-0.100000)"
fill="#000000" stroke="none">
<path d="M599 2096 c-109 -29 -191 -107 -225 -215 -47 -151 39 -323 192 -380
107 -41 82 -58 434 294 l315 315 -335 -1 c-232 0 -349 -4 -381 -13z"/>
<path d="M1430 1730 c0 -27 5 -50 10 -50 6 0 10 12 10 27 0 26 1 26 15 7 15
-19 15 -19 30 0 14 19 15 19 15 -7 0 -15 5 -27 10 -27 6 0 10 23 10 50 0 39
-3 50 -16 50 -9 0 -18 -9 -21 -20 -3 -11 -9 -20 -13 -20 -4 0 -10 9 -13 20 -3
11 -12 20 -21 20 -13 0 -16 -11 -16 -50z"/>
<path d="M1566 1734 c-17 -49 -14 -66 6 -46 15 15 48 16 48 2 0 -5 6 -10 14
-10 12 0 11 9 -4 48 -24 63 -44 65 -64 6z m38 1 c3 -8 1 -15 -4 -15 -6 0 -10
7 -10 15 0 8 2 15 4 15 2 0 6 -7 10 -15z"/>
<path d="M1660 1730 c0 -38 4 -50 15 -50 8 0 15 9 15 20 0 11 7 20 15 20 8 0
15 -9 15 -20 0 -11 7 -20 15 -20 11 0 15 12 15 50 0 38 -4 50 -15 50 -8 0 -15
-9 -15 -20 0 -11 -7 -20 -15 -20 -8 0 -15 9 -15 20 0 11 -7 20 -15 20 -11 0
-15 -12 -15 -50z"/>
<path d="M1770 1730 c0 -38 4 -50 15 -50 9 0 15 10 16 23 0 12 3 16 6 10 7
-19 31 -16 36 5 3 10 5 6 6 -10 2 -50 21 -29 21 22 0 55 -18 68 -38 28 l-11
-23 -7 23 c-3 12 -14 22 -25 22 -16 0 -19 -8 -19 -50z"/>
<path d="M1900 1755 c-15 -39 3 -75 38 -75 34 0 52 16 52 46 0 42 -11 54 -46
54 -28 0 -36 -5 -44 -25z m60 -26 c0 -24 -4 -30 -17 -27 -11 2 -19 14 -21 31
-3 22 1 27 17 27 17 0 21 -6 21 -31z"/>
<path d="M2022 1768 c-16 -16 -15 -63 2 -77 8 -7 27 -11 43 -9 26 3 28 6 28
48 0 43 -2 45 -30 48 -17 2 -36 -3 -43 -10z m53 -38 c0 -29 -30 -40 -37 -13
-7 27 2 44 21 41 10 -2 16 -13 16 -28z"/>
<path d="M2130 1730 c0 -48 1 -50 28 -50 35 0 52 16 52 50 0 34 -17 50 -52 50
-27 0 -28 -2 -28 -50z m53 18 c5 -16 -10 -48 -23 -48 -6 0 -10 14 -10 30 0 30
24 43 33 18z"/>
<path d="M580 1365 l-315 -316 356 3 355 3 59 30 c149 76 214 257 147 407 -42
96 -141 171 -242 184 l-45 5 -315 -316z"/>
<path d="M426 964 c-7 -19 10 -44 30 -44 8 0 14 -4 14 -10 0 -5 -12 -10 -27
-10 -19 0 -24 -3 -16 -11 6 -6 21 -9 34 -7 32 4 40 47 10 55 -24 6 -28 23 -6
23 8 0 15 5 15 10 0 17 -47 11 -54 -6z"/>
<path d="M606 933 c-18 -53 -16 -60 12 -42 17 10 23 10 36 -1 9 -7 19 -11 21
-8 9 9 -27 98 -40 98 -7 0 -20 -21 -29 -47z m38 2 c3 -9 0 -15 -9 -15 -9 0
-12 6 -9 15 4 8 7 15 9 15 2 0 5 -7 9 -15z"/>
<path d="M810 940 c0 -29 -4 -40 -15 -40 -8 0 -15 -5 -15 -11 0 -6 10 -9 23
-7 19 3 22 10 25 51 2 28 -1 47 -7 47 -6 0 -11 -18 -11 -40z"/>
<path d="M940 930 c0 -27 5 -50 10 -50 6 0 10 23 10 50 0 28 -4 50 -10 50 -5
0 -10 -22 -10 -50z"/>
<path d="M1070 930 c0 -48 1 -50 28 -50 37 0 52 17 52 56 0 34 -13 44 -56 44
-22 0 -24 -4 -24 -50z m55 0 c0 -16 -6 -26 -17 -28 -14 -3 -18 3 -18 28 0 25
4 31 18 28 11 -2 17 -12 17 -28z"/>
</g>
</svg>
